<?xml version="1.0" standalone="no"?>
<!DOCTYPE svg PUBLIC "-//W3C//DTD SVG 20010904//EN"
 "http://www.w3.org/TR/2001/REC-SVG-20010904/DTD/svg10.dtd">
<svg version="1.0" xmlns="http://www.w3.org/2000/svg"
 width="1280.000000pt" height="640.000000pt" viewBox="0 0 1280.000000 640.000000"
 preserveAspectRatio="xMidYMid meet">
<metadata>
Created by potrace 1.15, written by Peter Selinger 2001-2017
</metadata>
<g transform="translate(0.000000,640.000000) scale(0.100000,-0.100000)"
fill="#9c27b0" stroke="none">
<path d="M7385 5499 c-512 -12 -863 -35 -843 -54 2 -2 59 1 128 5 184 13 598
28 1085 40 625 16 631 16 275 16 -179 1 -469 -3 -645 -7z"/>
<path d="M9055 5480 c25 -11 161 -11 195 0 16 5 -20 8 -95 8 -76 0 -113 -3
-100 -8z"/>
<path d="M9413 5454 c3 -4 91 -20 194 -35 404 -63 688 -133 847 -209 45 -21
136 -77 204 -125 68 -48 126 -84 130 -80 9 9 -87 94 -168 149 -206 139 -573
259 -905 296 -99 11 -312 14 -302 4z"/>
<path d="M6190 5420 c-10 -7 12 -10 70 -9 57 0 78 3 65 9 -28 12 -117 12 -135
0z"/>
<path d="M9020 5420 c-11 -7 -1 -10 35 -10 36 0 46 3 35 10 -8 5 -24 10 -35
10 -11 0 -27 -5 -35 -10z"/>
<path d="M5842 5388 c-75 -11 -197 -54 -262 -91 -69 -39 -164 -135 -225 -226
-25 -39 -98 -168 -161 -288 -188 -355 -318 -559 -379 -594 -60 -35 -201 -40
-1410 -45 -1190 -6 -1965 4 -2037 26 -29 8 -37 16 -40 37 -2 17 -13 33 -30 42
-36 20 -125 5 -230 -38 -137 -58 -197 -132 -232 -290 -20 -89 -55 -159 -106
-215 -22 -23 -44 -55 -51 -72 -6 -16 -15 -124 -19 -249 -5 -131 -13 -234 -20
-255 -7 -19 -53 -93 -103 -164 -110 -158 -167 -271 -201 -399 -14 -55 -35
-112 -46 -127 -35 -49 -108 -90 -237 -135 -6 -2 -20 -16 -30 -31 -14 -21 -18
-54 -21 -154 -5 -162 8 -235 46 -248 15 -5 44 -23 65 -40 24 -19 44 -28 57
-25 11 3 57 39 103 80 45 42 99 87 120 101 29 19 36 29 31 45 -6 18 -3 19 30
13 32 -6 37 -4 48 19 25 55 48 7 73 -152 32 -201 92 -338 215 -494 70 -88 213
-222 295 -274 164 -105 264 -135 485 -142 326 -10 460 36 796 279 66 47 147
102 179 121 129 76 155 126 164 317 7 139 10 137 29 -16 12 -89 27 -130 51
-139 53 -21 633 -27 3186 -35 1605 -6 2846 -14 2895 -19 47 -5 91 -10 98 -10
7 -1 43 -29 80 -64 37 -34 88 -77 114 -95 82 -56 209 -111 288 -125 89 -16
116 -29 195 -97 115 -99 346 -196 518 -219 161 -22 270 -11 457 45 207 63 378
184 523 372 77 98 120 140 202 195 48 32 95 36 102 8 8 -31 74 -50 210 -60
241 -19 651 21 750 73 32 16 73 61 73 78 0 6 -11 23 -24 38 -42 51 -43 196 -1
226 21 16 11 57 -13 52 -24 -5 -42 -49 -57 -137 l-13 -76 -1 88 c-1 114 15
157 59 157 17 0 49 -9 71 -21 86 -44 120 3 51 71 -22 22 -49 40 -60 40 -26 0
-30 29 -42 319 -13 345 -45 528 -138 801 -75 220 -134 340 -236 480 -34 47
-83 114 -108 150 -70 100 -95 112 -463 210 -327 87 -309 81 -313 110 -28 221
-203 665 -312 790 l-21 25 7 -25 c3 -14 42 -100 85 -191 187 -395 260 -729
159 -729 -29 0 -46 38 -88 201 -50 189 -132 434 -172 514 -142 282 -479 496
-942 599 -101 23 -297 55 -335 56 -21 0 -15 -16 10 -28 21 -10 21 -11 -8 -11
-28 -1 -147 23 -245 49 -44 11 -162 9 -335 -7 l-70 -7 213 -32 c207 -32 290
-49 187 -39 -94 9 -740 44 -1030 56 -897 36 -2436 -56 -2670 -160 -39 -17 -45
-24 -45 -50 0 -28 -2 -29 -34 -24 -30 5 -34 3 -39 -23 -3 -16 -44 -91 -92
-167 -47 -76 -153 -264 -236 -419 -161 -301 -196 -360 -267 -451 -68 -86 -91
-97 -223 -104 l-112 -6 19 25 c27 37 45 46 114 57 174 28 237 105 469 572 140
280 191 395 200 449 5 29 11 36 36 40 26 4 31 11 36 45 12 75 131 150 334 214
55 17 106 35 114 40 22 14 -1 18 -57 9z m2778 -138 c339 -12 575 -28 720 -46
276 -35 722 -125 654 -132 -17 -2 -98 8 -180 22 -489 83 -1076 132 -1143 96
-21 -11 -22 -13 -6 -30 11 -12 13 -20 6 -25 -6 -3 -291 -5 -633 -3 -590 3
-625 2 -666 -16 -54 -23 -75 -51 -102 -132 -12 -36 -23 -64 -25 -62 -1 2 -5
67 -9 146 l-7 142 38 1 c21 0 56 4 78 8 26 6 -30 9 -160 8 -199 0 -199 0 -92
-10 l107 -10 0 -153 c0 -85 -4 -154 -9 -154 -4 0 -23 10 -42 23 -28 18 -35 31
-40 69 -16 109 -44 118 -374 118 -403 0 -859 -32 -1069 -75 -66 -14 -121 -23
-123 -21 -2 1 5 10 14 18 46 41 296 118 383 118 26 0 69 7 96 16 34 11 110 18
249 23 180 6 193 7 127 15 -153 17 -119 23 133 22 211 -1 265 2 285 14 15 8
70 17 140 21 152 10 1314 2 1650 -11z m-2620 -50 c10 -7 -10 -9 -65 -9 -55 1
-72 3 -55 9 36 11 102 11 120 0z m-230 -29 c0 -9 -100 -51 -120 -51 -17 0 -11
15 12 29 42 26 108 39 108 22z m2693 -102 c312 -19 344 -28 402 -116 l37 -56
-158 7 c-88 3 -289 9 -449 11 -953 16 -973 16 -969 34 1 9 6 33 9 54 8 49 29
58 160 67 161 11 781 11 968 -1z m553 -10 c43 -26 44 -40 3 -29 -32 9 -79 36
-79 45 0 13 46 3 76 -16z m-2100 -5 l-28 -16 6 -439 6 -439 -131 0 c-72 0
-139 5 -150 11 -11 5 -75 16 -142 24 -67 8 -160 19 -207 25 -71 8 -238 24
-479 44 -48 4 -75 -5 -136 -46 -74 -50 -186 -44 -268 14 -29 21 -107 120 -107
137 0 5 47 107 104 225 l105 216 65 0 c179 0 941 52 996 68 14 4 -200 9 -475
12 -275 3 -508 10 -518 14 -39 18 -13 40 78 63 179 45 352 64 770 83 127 6
237 13 245 14 8 2 78 4 155 4 132 1 138 0 111 -14z m3307 -47 c38 -16 68 -47
46 -47 -23 1 -99 38 -99 50 0 14 14 13 53 -3z m-713 -52 c134 -24 290 -65 355
-94 107 -49 196 -180 230 -338 46 -217 55 -247 80 -273 28 -29 30 -38 14 -74
-14 -31 -46 -43 -129 -51 -92 -9 -414 12 -457 30 -39 17 -120 20 -142 6 -8 -5
-11 -16 -8 -24 9 -23 -3 -28 -34 -11 -37 19 -44 34 -58 119 -28 182 -54 666
-38 709 8 21 72 21 187 1z m-2482 -27 c-5 -14 -40 -26 -81 -27 -18 -1 -26 3
-22 10 16 25 111 41 103 17z m3223 -49 c81 -53 195 -166 247 -247 142 -219
175 -503 72 -609 -17 -17 -44 -33 -62 -37 -90 -18 -306 -29 -603 -30 -314 -1
-445 6 -445 23 0 14 79 20 452 36 438 18 529 30 596 73 56 36 65 114 32 270
-47 224 -172 431 -300 498 -25 12 -58 32 -75 43 l-30 21 26 0 c14 0 55 -19 90
-41z m-2298 0 c92 -5 171 -8 175 -6 10 6 720 -18 727 -24 10 -10 27 -369 24
-492 -3 -96 -8 -129 -21 -149 -10 -15 -14 -29 -9 -33 15 -9 42 7 51 30 10 25
57 42 73 26 7 -7 -1 -22 -27 -46 -44 -41 -73 -44 -142 -15 -79 34 -195 41
-846 47 l-628 6 0 339 0 339 228 -6 c125 -3 303 -11 395 -16z m1122 1 c4 -6
-10 -10 -34 -10 -23 0 -41 5 -41 10 0 6 15 10 34 10 19 0 38 -4 41 -10z m37
-294 c-9 -18 -11 -16 -11 19 0 33 1 37 10 21 8 -12 8 -25 1 -40z m-2018 -22
c12 -32 6 -312 -9 -399 -20 -112 -35 -141 -83 -156 -91 -30 -1531 -19 -1686
12 -70 15 -126 64 -126 111 0 15 2 28 5 28 2 0 24 -14 48 -31 57 -40 90 -47
300 -60 131 -8 194 -8 240 0 108 20 360 24 769 12 218 -6 404 -8 412 -5 8 3
16 15 18 27 2 14 11 23 25 25 29 4 31 22 36 232 4 155 14 220 36 220 5 0 12
-7 15 -16z m3089 -194 c-3 -11 -9 -17 -14 -14 -11 6 -12 45 -2 70 6 15 8 14
14 -9 4 -15 5 -36 2 -47z m-987 -56 c22 -77 16 -205 -12 -259 -28 -54 -67 -74
-165 -85 -97 -11 -1239 -12 -1469 -1 -175 8 -207 19 -234 75 -15 32 -23 116
-10 116 3 0 39 -34 79 -76 72 -76 105 -90 84 -38 -9 26 -9 26 28 21 21 -4 214
-11 428 -16 614 -17 872 -30 912 -46 20 -9 64 -15 102 -14 l66 1 -47 16 c-26
9 -50 20 -53 24 -4 3 36 4 88 1 93 -6 96 -5 121 20 26 26 27 28 24 161 -1 98
2 139 11 150 19 23 29 12 47 -50z m-3900 -29 c8 -20 -16 -77 -30 -72 -16 5
-19 42 -6 66 13 25 28 27 36 6z m5222 -77 c14 -14 16 -88 3 -88 -5 0 -14 7
-21 15 -26 31 -106 27 -197 -11 -20 -9 -15 21 6 40 23 21 124 55 167 55 16 1
35 -4 42 -11z m-4343 -18 c4 -6 -8 -10 -29 -10 -20 0 -36 5 -36 10 0 6 13 10
29 10 17 0 33 -4 36 -10z m-4901 -36 c9 -8 16 -28 16 -43 0 -49 -22 -58 -179
-70 -79 -6 -147 -8 -152 -5 -20 12 -8 57 22 85 36 34 87 47 196 48 62 1 85 -3
97 -15z m6301 6 c4 -6 -22 -10 -70 -10 -48 0 -74 4 -70 10 3 6 35 10 70 10 35
0 67 -4 70 -10z m640 0 c4 -6 -12 -10 -42 -9 -39 1 -43 3 -23 9 36 11 58 11
65 0z m530 -30 c13 -6 -9 -8 -65 -8 -57 0 -77 3 -60 8 33 11 100 11 125 0z
m-5010 -29 c77 -4 -204 -7 -625 -7 -421 0 -711 3 -645 6 171 9 1103 9 1270 1z
m7595 -78 c200 -40 492 -140 549 -190 21 -17 52 -61 70 -97 39 -80 70 -211 53
-228 -8 -8 -16 -3 -29 22 -37 69 -83 109 -142 126 -31 9 -63 24 -73 35 -13 15
-30 19 -79 19 -62 0 -62 0 -43 21 16 17 16 22 4 29 -23 14 -117 32 -147 28
-28 -4 -28 -4 11 -22 21 -9 36 -19 34 -22 -14 -13 -384 72 -463 107 -37 16
-38 18 -12 18 20 1 27 6 27 22 0 11 4 18 9 15 29 -18 88 65 77 109 -10 40 -7
40 154 8z m-6899 -23 c111 -11 129 -16 129 -40 0 -14 -13 -18 -77 -24 -43 -3
-573 -9 -1178 -12 -1161 -7 -1975 5 -2158 30 -164 23 -139 34 104 45 238 11
3065 12 3180 1z m823 -86 c22 -8 10 -24 -19 -24 -25 0 -39 12 -28 24 8 8 27 8
47 0z m-209 -14 c-3 -5 -19 -10 -36 -10 -16 0 -29 5 -29 10 0 6 16 10 36 10
21 0 33 -4 29 -10z m2155 -20 c94 -3 -138 -6 -535 -6 -385 0 -632 3 -550 6
212 8 889 9 1085 0z m1520 -34 c19 -1 -68 -2 -195 -2 -164 0 -197 2 -115 5
109 6 232 4 310 -3z m-6388 -33 c-40 -2 -103 -2 -140 0 -37 2 -4 3 73 3 77 0
107 -2 67 -3z m293 -3 c4 -6 -8 -10 -29 -10 -20 0 -36 5 -36 10 0 6 13 10 29
10 17 0 33 -4 36 -10z m373 4 c-8 -7 -149 -7 -156 1 -3 3 32 5 78 5 46 0 81
-3 78 -6z m192 -4 c0 -5 -20 -10 -45 -10 -25 0 -45 5 -45 10 0 6 20 10 45 10
25 0 45 -4 45 -10z m6693 3 c-51 -2 -135 -2 -185 0 -51 1 -10 3 92 3 102 0
143 -2 93 -3z m-8648 -33 c3 -5 -14 -23 -37 -41 -50 -36 -178 -102 -185 -95
-3 2 5 9 16 16 13 6 21 21 21 36 0 46 70 91 147 93 17 1 35 -3 38 -9z m3568 3
c-117 -2 -309 -2 -425 0 -117 1 -22 2 212 2 234 0 329 -1 213 -2z m5775 0
c-60 -2 -156 -2 -215 0 -60 1 -11 3 107 3 118 0 167 -2 108 -3z m-2970 -32
c191 -7 226 -11 240 -26 16 -16 4 -16 -208 -10 -279 7 -1216 24 -1565 27
l-260 2 265 6 c440 9 1291 10 1528 1z m1611 -33 c-113 -6 -264 -6 -380 0 -186
9 -178 9 186 9 359 0 370 -1 194 -9z m811 2 c0 -6 -42 -10 -106 -10 -67 0
-103 4 -99 10 3 6 50 10 106 10 59 0 99 -4 99 -10z m-8517 -29 c139 -38 95
-57 -116 -49 -136 6 -187 17 -187 42 0 8 12 19 28 25 38 15 193 5 275 -18z
m-583 -1 c11 -7 -4 -10 -50 -10 -46 0 -61 3 -50 10 8 5 31 10 50 10 19 0 42
-5 50 -10z m4275 -21 c134 -15 139 -30 14 -50 -100 -15 -281 -7 -314 15 -27
18 -33 41 -12 50 15 7 188 -2 312 -15z m2215 -9 c230 -27 266 -42 159 -68 -72
-17 -283 -11 -324 9 -33 16 -45 47 -23 60 18 12 85 11 188 -1z m-6368 -60 c20
-6 56 -26 78 -45 46 -38 73 -48 116 -43 25 3 29 7 26 32 -2 16 3 33 10 37 7 5
67 9 133 9 125 0 504 -26 513 -35 3 -3 -33 -5 -79 -5 -85 0 -345 -16 -409 -25
l-35 -5 43 20 c23 10 42 22 42 26 0 17 -84 -8 -173 -51 -88 -42 -104 -46 -155
-43 l-57 3 3 -32 c3 -31 2 -33 -30 -33 -18 0 -55 7 -83 16 -45 14 -159 21
-210 12 -19 -3 -20 2 -19 71 0 66 3 76 25 94 22 18 34 19 124 13 55 -3 117
-11 137 -16z m1158 -70 c11 -7 5 -10 -22 -10 -21 0 -38 5 -38 10 0 13 40 13
60 0z m-223 -65 c264 -37 494 -126 601 -232 96 -95 62 -109 -83 -33 -275 142
-550 202 -832 179 -365 -29 -607 -151 -913 -459 -181 -182 -273 -322 -275
-420 -1 -55 -12 -66 -39 -40 -27 26 81 270 195 440 75 112 214 255 319 329
286 201 664 288 1027 236z m8628 -60 c350 -53 667 -215 978 -501 165 -151 223
-194 261 -194 29 0 84 -29 139 -73 25 -21 22 -23 -33 -26 -83 -4 -136 28 -310
189 -85 78 -191 170 -235 204 -424 327 -913 452 -1365 349 -36 -8 -126 -34
-200 -58 -146 -47 -180 -56 -180 -48 0 16 313 137 409 157 92 20 406 20 536 1z
m-9775 -95 c0 -15 -38 -50 -55 -50 -18 0 -20 31 -3 48 15 15 58 16 58 2z
m11364 -40 c38 -42 63 -103 112 -275 39 -135 40 -148 19 -165 -12 -10 -24 -10
-55 -1 -50 15 -68 47 -116 214 -35 121 -52 231 -41 260 9 23 42 10 81 -33z
m-1624 5 c210 -35 527 -159 504 -196 -8 -14 -59 -3 -219 48 -256 80 -446 106
-625 84 -192 -24 -326 -71 -524 -185 -63 -36 -141 -77 -172 -91 -32 -14 -73
-37 -92 -51 -61 -47 -43 -18 41 62 200 195 405 294 697 338 66 9 313 4 390 -9z
m-8840 -150 c198 -30 410 -90 410 -116 0 -12 6 -13 -106 22 -132 41 -228 58
-354 66 -187 10 -381 -21 -529 -86 -40 -18 -97 -35 -125 -38 -48 -5 -52 -8
-49 -28 5 -21 -19 -55 -38 -55 -13 0 -11 15 5 55 21 50 172 145 296 187 47 16
78 18 220 14 91 -3 212 -12 270 -21z m8548 -86 c136 -14 318 -57 372 -85 52
-29 47 -28 -120 11 -291 68 -593 8 -880 -176 -88 -56 -129 -74 -143 -60 -15
15 21 58 106 126 94 76 185 125 282 154 130 39 229 47 383 30z m-8838 -323
c-47 -18 -133 -56 -192 -84 -60 -28 -108 -47 -108 -43 0 22 46 62 109 95 102
53 138 65 211 65 l65 0 -85 -33z m7483 27 c-40 -2 -107 -2 -150 0 -43 1 -10 3
72 3 83 0 118 -2 78 -3z m72 -93 c4 -6 -27 -10 -87 -10 -64 0 -88 3 -78 10 20
13 157 13 165 0z m1350 1 c14 -6 -3 -10 -55 -15 -96 -10 -203 -44 -345 -111
-63 -30 -115 -50 -115 -46 0 18 85 84 135 107 132 58 317 89 380 65z m-8531
-74 c74 -35 101 -62 90 -91 -9 -24 -32 -27 -123 -15 -113 15 -252 6 -376 -25
-142 -35 -149 -35 -153 -8 -3 18 1 22 22 22 23 0 24 3 19 34 -5 29 -1 36 28
58 34 25 107 53 164 62 17 2 80 3 142 1 105 -2 117 -5 187 -38z m6981 13 c46
-4 -7 -7 -155 -7 -139 1 -196 3 -150 7 103 9 221 9 305 0z m3209 -36 c22 -21
20 -44 -3 -44 -21 0 -33 22 -25 45 8 19 9 19 28 -1z m-3276 -61 c-60 -2 -156
-2 -215 0 -60 1 -11 3 107 3 118 0 167 -2 108 -3z m1727 -18 c67 -21 118 -56
145 -100 21 -34 21 -38 7 -53 -18 -17 -16 -17 -181 27 -52 14 -106 21 -155 20
-42 -1 -65 -3 -51 -6 69 -10 119 -27 152 -50 21 -14 67 -32 103 -39 83 -17
105 -29 105 -56 0 -29 48 -108 65 -108 11 0 15 -13 15 -50 0 -36 5 -52 18 -59
15 -8 13 -11 -13 -21 -43 -17 -90 -23 -118 -16 -13 3 -55 31 -92 61 -73 60
-133 95 -162 95 -56 0 -173 -86 -173 -126 0 -23 -65 -45 -123 -42 -48 3 -53 5
-68 37 -19 41 -20 38 -41 -74 l-13 -70 -3 60 c-5 86 5 133 38 192 37 65 98
115 207 168 77 38 83 43 60 49 -38 9 -105 -9 -134 -36 l-25 -23 -29 32 c-38
43 -46 77 -25 108 21 32 102 73 180 91 76 17 241 11 311 -11z m-1695 -49 c187
-6 254 -19 157 -31 -125 -16 -935 7 -907 26 8 5 378 14 485 12 55 -2 174 -5
265 -7z m3334 -131 c57 -83 153 -272 144 -281 -3 -2 -19 17 -36 43 -50 79
-222 375 -222 382 1 11 60 -63 114 -144z m-10392 124 c76 -16 138 -50 187
-104 48 -52 94 -143 89 -177 -3 -20 -8 -23 -39 -20 -20 2 -53 -4 -74 -12 -54
-23 -61 -21 -118 33 -66 62 -89 73 -147 73 -57 0 -93 -18 -145 -72 -48 -50
-84 -70 -125 -70 -38 0 -85 23 -94 46 -23 60 88 218 194 274 70 37 178 49 272
29z m-1309 -16 c9 -8 -22 -43 -38 -43 -8 0 -10 10 -7 25 4 24 30 34 45 18z
m8502 -72 c41 -6 45 -9 25 -14 -65 -16 -191 -18 -572 -7 -617 17 -627 27 -28
28 289 0 548 -3 575 -7z m-8465 -46 c0 -20 -33 -36 -51 -24 -12 8 -10 13 10
29 24 21 41 19 41 -5z m105 -15 c4 -6 -8 -10 -29 -10 -20 0 -36 5 -36 10 0 6
13 10 29 10 17 0 33 -4 36 -10z m-290 -30 c-3 -5 -17 -10 -31 -10 -35 0 -66
-35 -60 -68 25 -132 14 -192 -33 -192 -51 0 -65 20 -65 95 0 62 3 70 28 90 22
18 26 27 20 49 -5 19 -2 31 7 37 20 12 142 12 134 -1z m8183 3 c-115 -2 -301
-2 -415 0 -115 1 -21 2 207 2 228 0 322 -1 208 -2z m-7799 -111 c39 -78 54
-186 44 -322 l-8 -105 -27 80 c-15 44 -32 109 -38 145 -10 66 -14 260 -5 260
3 0 18 -26 34 -58z m3011 -172 c77 -47 163 -67 321 -76 143 -9 139 5 -14 40
-138 33 -207 55 -207 67 0 11 -4 11 58 -1 55 -10 448 -34 837 -50 138 -5 306
-12 375 -15 693 -30 2527 -75 3038 -75 496 0 840 -21 880 -52 18 -15 15 -45
-5 -53 -61 -26 -532 -24 -2415 10 -474 8 -1191 19 -1593 25 -1107 16 -1239 31
-1381 162 -37 34 -154 204 -154 223 0 3 44 -33 98 -80 53 -48 126 -104 162
-125z m5185 193 l90 -7 -85 -7 c-111 -9 -919 -11 -1083 -2 -70 3 -124 10 -120
14 17 17 986 18 1198 2z m-8555 -88 c0 -22 -5 -47 -10 -55 -7 -10 -10 6 -10
55 0 49 3 65 10 55 5 -8 10 -33 10 -55z m1388 43 c24 -24 2 -158 -26 -158 -14
0 -72 61 -89 93 -13 26 -13 31 0 44 19 19 32 11 57 -35 l19 -37 1 37 c0 62 13
81 38 56z m7212 -35 c24 -11 24 -11 5 -19 -29 -13 -259 -11 -720 4 -615 21
-587 31 85 28 417 -1 613 -5 630 -13z m1396 -97 c-5 -38 -3 -64 8 -90 26 -62
38 -45 35 52 -2 71 0 86 12 84 23 -5 59 -51 59 -76 0 -38 -28 -94 -56 -112
-24 -16 -27 -16 -52 3 -59 43 -77 129 -36 174 29 32 37 23 30 -35z m-1893 12
c-114 -5 -278 -5 -380 0 -162 8 -144 9 202 9 364 0 371 0 178 -9z m-6843 -103
c48 -40 74 -44 106 -14 l23 22 53 -34 c35 -23 73 -37 118 -44 54 -9 66 -15 68
-32 7 -45 -144 -131 -246 -140 -101 -9 -255 50 -332 127 -52 52 -61 87 -29
113 20 16 33 18 90 13 53 -6 68 -4 79 9 17 21 23 20 70 -20z m8721 -115 c50
-26 95 -26 111 0 17 26 38 25 97 -5 61 -31 111 -80 111 -109 0 -38 -37 -74
-92 -91 -65 -19 -143 -19 -263 0 -52 9 -108 14 -124 13 -31 -2 -64 20 -83 56
-8 16 -7 18 6 13 22 -9 27 5 15 46 -11 41 -15 43 -43 22 -18 -13 -22 -13 -43
7 -49 46 -20 60 63 32 25 -8 57 -13 69 -10 27 7 55 61 55 108 l0 33 41 -48
c23 -26 58 -57 80 -67z m419 -11 c0 -15 -33 -69 -42 -69 -14 0 -8 43 9 62 18
20 33 24 33 7z m-6420 -19 c421 -6 1015 -15 1320 -20 305 -5 870 -15 1255 -21
385 -6 844 -15 1020 -19 209 -6 -93 -7 -870 -4 -654 2 -1455 9 -1780 14 -324
5 -927 14 -1340 20 -774 10 -992 17 -978 31 13 13 104 16 363 12 135 -2 589
-8 1010 -13z m6917 -67 c-10 -58 -115 -256 -171 -323 -69 -81 -164 -155 -261
-202 -71 -35 -87 -39 -137 -36 -32 3 -58 2 -58 0 0 -2 12 -13 26 -25 l27 -21
-23 -8 c-27 -10 -435 -12 -451 -2 -18 11 18 34 53 34 15 0 28 5 28 10 0 16
-53 11 -116 -11 -94 -32 -166 -11 -306 92 -66 49 -248 231 -248 249 0 32 31
13 101 -61 76 -81 78 -82 84 -56 4 15 4 44 1 65 -12 73 -12 77 8 77 10 0 22
-7 26 -15 4 -8 13 -26 19 -40 16 -34 118 -102 208 -139 249 -102 421 -94 688
33 50 24 119 67 155 97 41 34 61 47 56 34 -4 -11 -10 -41 -13 -67 -4 -37 -3
-48 8 -48 27 0 128 120 164 195 19 41 44 81 55 87 11 7 29 36 41 65 25 62 44
70 36 16z m-2003 5 c-15 -49 -35 -76 -64 -86 -16 -6 -30 -8 -30 -5 0 3 18 30
40 60 43 56 66 69 54 31z m1754 -14 c2 -17 -6 -50 -16 -75 -27 -62 -109 -169
-129 -169 -9 0 -43 -18 -75 -41 -122 -85 -316 -159 -418 -159 -92 0 -262 59
-339 118 -20 15 -41 26 -47 24 -17 -4 -179 172 -203 220 -21 43 -20 58 5 58
21 0 123 -99 130 -125 7 -28 40 -52 156 -115 208 -111 405 -118 596 -21 75 38
179 133 240 221 79 112 94 122 100 64z m-2055 -22 c14 -13 20 -13 26 -3 5 7
23 11 47 9 34 -3 39 -7 42 -29 2 -14 -4 -31 -11 -38 -20 -16 -2790 6 -3337 26
-398 15 -47 21 1320 23 1421 1 1680 6 1688 30 7 19 201 4 225 -18z m-7757 -1
c17 -10 63 -44 103 -75 132 -102 263 -149 411 -149 103 0 188 22 289 72 98 50
121 57 121 38 0 -41 -165 -144 -216 -134 -20 4 -23 1 -19 -14 9 -27 -11 -31
-81 -20 -53 8 -87 5 -58 -6 6 -2 20 -10 30 -18 17 -13 9 -14 -73 -15 -90 0
-122 12 -68 26 53 13 21 21 -72 17 -114 -6 -154 5 -150 39 2 19 -5 24 -46 35
-65 16 -125 53 -175 107 -41 45 -60 86 -47 105 9 15 15 14 51 -8z m3929 10
c124 -5 101 -7 -200 -13 -668 -15 -1746 -7 -1660 13 38 8 1671 9 1860 0z
m-3075 -40 c0 -33 -78 -90 -155 -114 -56 -18 -94 -22 -195 -22 -148 0 -199 15
-244 71 l-29 37 129 -7 c135 -8 278 7 374 38 25 8 62 14 83 15 30 1 37 -3 37
-18z m-863 -103 c106 -96 174 -140 270 -173 220 -77 449 -48 657 84 80 50 147
84 153 77 3 -3 -6 -19 -21 -36 -14 -18 -29 -44 -32 -58 -12 -56 -23 -72 -50
-72 -53 0 -124 -61 -124 -107 0 -12 -8 -24 -17 -27 -41 -13 -207 -26 -323 -26
-140 0 -228 16 -310 54 -32 15 -73 26 -98 26 -40 0 -42 1 -36 25 9 37 -44 88
-82 79 -18 -5 -25 -3 -20 4 9 15 -13 64 -63 141 -47 73 -51 91 -18 91 15 0 55
-29 114 -82z m8427 46 c9 -25 7 -92 -4 -99 -21 -13 -53 89 -33 108 11 12 31 7
37 -9z m2736 -4 c11 -7 1 -10 -35 -10 -36 0 -46 3 -35 10 8 5 24 10 35 10 11
0 27 -5 35 -10z m-1681 -36 c-6 -8 -17 -14 -25 -14 -7 0 -14 -14 -16 -32 -6
-67 -88 -93 -288 -92 -87 1 -112 4 -147 22 -23 12 -49 22 -57 22 -16 0 -46 48
-46 74 0 26 15 26 96 5 149 -39 277 -34 424 19 57 21 79 20 59 -4z m1291 6
c44 -7 44 -8 -25 -11 -134 -7 -309 7 -299 23 7 11 239 2 324 -12z"/>
<path d="M7660 5230 c-10 -7 9 -10 63 -10 50 0 76 4 72 10 -8 13 -115 13 -135
0z"/>
<path d="M7980 5230 c-10 -7 7 -10 58 -10 46 0 71 4 67 10 -8 13 -105 13 -125
0z"/>
<path d="M8270 5230 c0 -6 50 -10 131 -10 84 0 128 4 124 10 -4 6 -58 10 -131
10 -76 0 -124 -4 -124 -10z"/>
<path d="M7147 5133 c-10 -10 -8 -63 2 -63 13 0 24 51 13 62 -4 4 -11 5 -15 1z"/>
<path d="M10136 4222 c-4 -7 -26 -27 -48 -43 -39 -27 -40 -29 -15 -29 34 0 80
40 75 65 -3 15 -6 17 -12 7z"/>
<path d="M6750 4030 c0 -5 20 -10 45 -10 25 0 45 5 45 10 0 6 -20 10 -45 10
-25 0 -45 -4 -45 -10z"/>
<path d="M8120 4000 c0 -6 27 -10 60 -10 33 0 60 4 60 10 0 6 -27 10 -60 10
-33 0 -60 -4 -60 -10z"/>
<path d="M11235 4000 c-15 -24 -7 -27 380 -145 66 -20 153 -54 193 -76 77 -41
112 -49 112 -25 0 45 -158 113 -461 200 -210 60 -215 61 -224 46z"/>
<path d="M1330 3120 c0 -5 16 -10 36 -10 21 0 33 4 29 10 -3 6 -19 10 -36 10
-16 0 -29 -4 -29 -10z"/>
<path d="M10082 3033 c-6 -2 -10 -9 -6 -14 7 -12 64 -12 64 1 0 6 -4 10 -9 10
-5 0 -15 2 -23 4 -7 3 -19 2 -26 -1z"/>
<path d="M1300 2110 c0 -5 16 -10 35 -10 19 0 35 5 35 10 0 6 -16 10 -35 10
-19 0 -35 -4 -35 -10z"/>
<path d="M4718 1863 c90 -2 234 -2 320 0 86 1 13 3 -163 3 -176 0 -247 -2
-157 -3z"/>
<path d="M5873 1833 c75 -2 199 -2 275 0 75 1 13 3 -138 3 -151 0 -213 -2
-137 -3z"/>
<path d="M7048 1797 c71 -6 153 -6 225 0 107 10 102 10 -113 10 -215 0 -220 0
-112 -10z"/>
<path d="M7605 1800 c-4 -6 15 -10 50 -10 35 0 54 4 50 10 -3 6 -26 10 -50 10
-24 0 -47 -4 -50 -10z"/>
<path d="M7875 1800 c-4 -6 22 -10 70 -10 48 0 74 4 70 10 -3 6 -35 10 -70 10
-35 0 -67 -4 -70 -10z"/>
<path d="M8130 1800 c-10 -7 9 -10 63 -10 50 0 76 4 72 10 -8 13 -115 13 -135
0z"/>
<path d="M10820 1242 c-32 -10 -156 -75 -172 -89 -25 -22 -12 -34 20 -21 23
10 158 92 171 104 8 7 -4 11 -19 6z"/>
<path d="M9790 1200 c0 -5 16 -10 36 -10 21 0 33 4 29 10 -3 6 -19 10 -36 10
-16 0 -29 -4 -29 -10z"/>
<path d="M10420 1106 c0 -16 37 -46 57 -46 19 0 16 24 -5 43 -23 21 -52 22
-52 3z"/>
<path d="M1370 1232 c0 -17 78 -42 128 -41 l47 1 -55 18 c-81 26 -120 33 -120
22z"/>
<path d="M1825 1233 c-116 -27 -167 -56 -82 -46 52 5 127 31 127 44 0 9 -11
10 -45 2z"/>
<path d="M5975 5390 c-14 -6 -2 -9 40 -9 42 0 54 3 40 9 -11 5 -29 9 -40 9
-11 0 -29 -4 -40 -9z"/>
<path d="M12586 2204 c-13 -33 -17 -159 -7 -174 10 -13 12 -13 21 0 5 8 10 34
10 57 0 23 5 54 10 69 10 26 12 26 28 10 13 -13 18 -39 20 -120 4 -99 3 -104
-23 -134 -22 -27 -28 -46 -34 -117 -7 -67 -14 -93 -35 -123 -33 -48 -33 -70 0
-78 63 -16 179 82 205 173 9 31 14 98 14 188 0 170 -4 178 -106 229 -81 40
-94 43 -103 20z m84 -438 c0 -76 -6 -106 -20 -106 -18 0 -21 44 -9 110 7 39
16 70 21 70 4 0 8 -33 8 -74z"/>
<path d="M8305 1395 c0 -54 0 -55 30 -55 21 0 26 3 16 9 -9 6 -11 16 -7 27 7
17 9 16 24 -9 9 -15 25 -27 35 -27 16 0 16 2 1 25 -13 20 -14 28 -4 40 20 24
-5 45 -54 45 l-41 0 0 -55z m68 31 c7 -16 -1 -26 -20 -26 -7 0 -13 9 -13 20 0
23 25 27 33 6z"/>
<path d="M8446 1434 c-20 -19 -21 -54 -2 -79 18 -25 74 -25 92 0 32 43 6 95
-46 95 -16 0 -36 -7 -44 -16z m70 -18 c8 -35 -4 -66 -26 -66 -22 0 -34 31 -26
66 4 15 14 24 26 24 12 0 22 -9 26 -24z"/>
<path d="M8584 1398 c13 -29 29 -53 36 -53 7 0 23 24 36 53 18 41 20 52 8 52
-8 0 -13 -3 -12 -7 1 -5 -4 -24 -11 -43 l-13 -35 -13 35 c-7 19 -10 38 -8 43
2 4 -7 7 -21 7 l-25 0 23 -52z"/>
<path d="M8695 1395 l0 -55 48 0 c26 0 47 4 47 8 0 5 -13 7 -30 4 -26 -4 -30
-1 -30 18 0 17 4 21 20 17 15 -4 20 0 20 16 0 16 -3 18 -12 9 -18 -18 -28 -15
-28 8 0 14 7 20 24 20 13 0 27 -6 29 -12 3 -8 6 -6 6 5 1 14 -8 17 -46 17
l-48 0 0 -55z"/>
<path d="M8809 1441 c9 -6 12 -23 10 -55 -4 -41 -2 -46 17 -46 18 0 20 5 17
28 l-4 27 21 -27 c12 -16 30 -28 41 -28 19 0 19 0 -1 22 -22 24 -26 38 -10 38
16 0 11 37 -6 44 -25 10 -101 7 -85 -3z m69 -24 c2 -10 -3 -17 -12 -17 -10 0
-16 9 -16 21 0 24 23 21 28 -4z"/>
</g>
</svg>
